#!OML:ASF I:\Actors\actors\Patient Classification 1\Patient 1\Session 1\Subject1.ASF
:FULLY-SPECIFIED
:DEGREES
202
root 0.334814 17.5475 8.95733 9.44457 -38.0252 -5.80885
lowerback -2.27551 -6.41519 2.46981
upperback -13.0111 -8.24785 8.07887
thorax -11.9333 -3.91818 8.15002
lowerneck -11.8395 7.31946 9.96969
upperneck 22.9951 8.85165 -3.53839
head 9.87443 4.56513 -1.7931
rclavicle 1.15295e-013 4.77083e-015
rhumerus 22.5551 -15.6159 -70.9397
rradius 115.69
rwrist -2.98884
rhand -22.7697 -50.8616
rfingers 7.12502
rthumb 3.66548 -440.81
lclavicle 1.15295e-013 4.77083e-015
lhumerus 100.194 -40.973 27.1422
lradius 71.6157
lwrist -14.339
lhand -36.333 -16.8002
lfingers 7.12502
lthumb -9.4311 12.9688
rfemur -12.4936 29.7035 13.7926
rtibia 9.1662
rfoot -9.44693 2.24668
rtoes -10.575
lfemur 12.7165 -24.1815 -27.7144
ltibia -2.5195
lfoot -41.9185 55.0637
ltoes 28.5112
203
root 0.329463 17.5472 8.99561 9.65273 -38.7161 -5.94249
lowerback -2.45693 -6.39383 2.54965
upperback -13.1668 -8.23014 8.12027
thorax -12.0171 -3.91743 8.15052
lowerneck -12.1773 7.59189 10.2555
upperneck 22.9617 9.17611 -3.66595
head 9.97391 4.72236 -1.82479
rclavicle 2.38542e-014 7.31528e-014
rhumerus 24.48 -17.3489 -70.7933
rradius 117.256
rwrist -1.79225
rhand -22.9956 -50.0317
rfingers 7.12502
rthumb 3.44732 -439.984
lclavicle 2.38542e-014 7.31528e-014
lhumerus 101.563 -39.5484 26.8613
lradius 73.5138
lwrist -15.7826
lhand -36.3572 -17.2429
lfingers 7.12502
lthumb -9.45451 12.5251
rfemur -12.6949 29.8992 13.7502
rtibia 9.20888
rfoot -9.44596 2.6942
rtoes -10.7255
lfemur 12.814 -24.1395 -27.9204
ltibia -2.53314
lfoot -43.0793 55.3055
ltoes 29.1935
204
root 0.322643 17.5461 9.03479 9.80716 -39.4617 -6.00428
lowerback -2.65702 -6.35321 2.59121
upperback -13.2944 -8.19246 8.12155
thorax -12.058 -3.90727 8.11783
lowerneck -12.4195 7.86907 10.7214
upperneck 22.8636 9.49057 -3.8661
head 10.0474 4.88292 -1.91392
rclavicle -1.20861e-013 4.92986e-014
rhumerus 26.4311 -19.0741 -70.7519
rradius 118.73
rwrist -0.663934
rhand -23.3547 -49.0417
rfingers 7.12502
rthumb 3.10051 -438.999
lclavicle -1.20861e-013 4.92986e-014
lhumerus 102.957 -38.1821 26.5195
lradius 75.3164
lwrist -16.9135
lhand -36.3008 -18.0308
lfingers 7.12502
lthumb -9.40007 11.7396
rfemur -12.8975 30.0341 13.6349
rtibia 9.24095
rfoot -9.45632 3.28093
rtoes -10.4701
lfemur 13.008 -24.1995 -28.2689
ltibia -2.65119
lfoot -44.1373 55.7684
ltoes 29.8582
205
root 0.31626 17.5442 9.07073 9.96008 -40.2136 -6.08932
lowerback -2.83092 -6.46013 2.59164
upperback -13.5408 -8.34599 8.30973
thorax -12.2045 -3.97276 8.3506
lowerneck -11.9288 8.2343 10.8734
upperneck 22.4614 10.067 -4.03942
head 9.87662 5.15227 -1.9362
rclavicle 1.82882e-014 9.06458e-014
rhumerus 28.3306 -20.1688 -70.7102
rradius 120.047
rwrist 0.420143
rhand -23.7458 -47.9404
rfingers 7.12502
rthumb 2.72285 -437.903
lclavicle 1.82882e-014 9.06458e-014
lhumerus 103.587 -37.0257 26.6816
lradius 76.9332
lwrist -18.1359
lhand -36.3364 -18.84
lfingers 7.12502
lthumb -9.43441 10.9288
rfemur -13.0802 30.1344 13.5533
rtibia 9.24573
rfoot -9.44072 3.92103
rtoes -9.90024
lfemur 13.1065 -24.0628 -28.5088
ltibia -2.67378
lfoot -44.9094 56.1044
ltoes 30.2735
206
root 0.307533 17.5428 9.10429 10.1809 -40.9799 -6.24788
lowerback -3.00071 -6.45301 2.67606
upperback -13.7367 -8.34703 8.39628
thorax -12.3378 -3.97803 8.41062
lowerneck -11.9504 8.57183 10.8507
upperneck 22.272 10.4862 -3.79059
head 9.83311 5.37232 -1.78612
rclavicle 9.54166e-015 -2.70347e-014
rhumerus 30.128 -21.541 -70.6547
rradius 121.218
rwrist 1.63803
rhand -23.9454 -47.0507
rfingers 7.12502
rthumb 2.53009 -437.015
lclavicle 9.54166e-015 -2.70347e-014
lhumerus 104.52 -36.036 26.6402
lradius 78.5378
lwrist -19.4603
lhand -36.5561 -19.4893
lfingers 7.12502
lthumb -9.64641 10.2699
rfemur -13.2791 30.2509 13.5321
rtibia 9.23509
rfoot -9.34455 4.55258
rtoes -9.35295
lfemur 13.1385 -23.8711 -28.6438
ltibia -2.6282
lfoot -45.8833 56.3106
ltoes 30.6745
207
root 0.295017 17.5431 9.13794 10.4127 -41.7899 -6.43851
lowerback -3.20337 -6.40682 2.7728
upperback -13.897 -8.29961 8.45006
thorax -12.4207 -3.96533 8.41348
lowerneck -11.9559 8.8628 11.0995
upperneck 21.9184 10.8314 -3.7634
head 9.75177 5.55636 -1.76772
rclavicle 1.59028e-015 3.97569e-014
rhumerus 31.7636 -22.8961 -70.5781
rradius 122.337
rwrist 2.79074
rhand -23.9303 -46.9082
rfingers 7.12502
rthumb 2.54467 -436.873
lclavicle 1.59028e-015 3.97569e-014
lhumerus 105.451 -35.1489 26.4743
lradius 80.1324
lwrist -20.465
lhand -36.5978 -20.3813
lfingers 7.12502
lthumb -9.68662 9.37598
rfemur -13.4507 30.4527 13.5371
rtibia 9.21143
rfoot -9.20889 5.14418
rtoes -8.81601
lfemur 13.2954 -23.8854 -28.8619
ltibia -2.6854
lfoot -47.1778 56.6896
ltoes 31.2291
208
root 0.281215 17.544 9.17042 10.593 -42.5892 -6.61655
lowerback -3.38626 -6.38881 2.85696
upperback -13.9976 -8.28911 8.52506
thorax -12.4346 -3.97062 8.44069
lowerneck -12.2149 9.18004 11.5915
upperneck 21.7449 11.2369 -4.14557
head 9.82826 5.73939 -1.9047
rclavicle -7.63333e-014 -2.8625e-014
rhumerus 33.3952 -24.0697 -70.4665
rradius 123.425
rwrist 3.76906
rhand -24.1557 -46.9496
rfingers 7.12502
rthumb 2.32703 -436.917
lclavicle -7.63333e-014 -2.8625e-014
lhumerus 106.23 -34.2742 26.3324
lradius 81.7039
lwrist -21.205
lhand -36.543 -21.5654
lfingers 7.12502
lthumb -9.63373 8.19428
rfemur -13.5458 30.6201 13.5661
rtibia 9.15072
rfoot -9.10183 5.76199
rtoes -8.37188
lfemur 13.5119 -23.9142 -29.1095
ltibia -2.77274
lfoot -48.4989 57.0453
ltoes 31.8325
209
root 0.266644 17.5439 9.20182 10.6964 -43.407 -6.71905
lowerback -3.53172 -6.35959 2.87771
upperback -14.085 -8.26361 8.60339
thorax -12.447 -3.961 8.50877
lowerneck -12.5025 9.48237 11.9049
upperneck 21.5359 11.633 -4.44257
head 9.88211 5.91123 -1.98401
rclavicle 7.55382e-014 4.6118e-014
rhumerus 34.9528 -25.11 -70.2848
rradius 124.456
rwrist 4.65698
rhand -24.7481 -46.7546
rfingers 7.12502
rthumb 1.75487 -436.727
lclavicle 7.55382e-014 4.6118e-014
lhumerus 106.928 -33.4387 26.2363
lradius 83.25
lwrist -22.1317
lhand -36.7543 -22.8275
lfingers 7.12502
lthumb -9.83762 6.92264
rfemur -13.6096 30.6577 13.5617
rtibia 9.07224
rfoot -8.99875 6.5015
rtoes -7.95909
lfemur 13.6899 -23.7679 -29.3634
ltibia -2.81871
lfoot -49.6221 57.331
ltoes 32.2659
210
root 0.250571 17.5438 9.23251 10.8878 -44.2454 -6.95565
lowerback -3.69916 -6.30908 2.98509
upperback -14.2253 -8.20763 8.699
thorax -12.5253 -3.94291 8.55602
lowerneck -12.4377 9.73849 12.115
upperneck 21.1879 11.9775 -4.55763
head 9.7997 6.07675 -2.00938
rclavicle -3.89618e-014 6.36111e-014
rhumerus 36.2001 -26.0427 -69.9936
rradius 125.497
rwrist 5.475
rhand -24.9096 -46.5677
rfingers 7.12502
rthumb 1.5989 -436.541
lclavicle -3.89618e-014 6.36111e-014
lhumerus 107.476 -32.7717 26.152
lradius 84.7606
lwrist -23.1338
lhand -36.895 -24.0529
lfingers 7.12502
lthumb -9.97334 5.69078
rfemur -13.6919 30.7117 13.6796
rtibia 9.04977
rfoot -8.86481 7.21126
rtoes -7.31052
lfemur 13.8557 -23.6413 -29.523
ltibia -2.8208
lfoot -50.9042 57.6424
ltoes 32.7033
211
root 0.234146 17.5446 9.26292 11.1579 -45.0662 -7.34549
lowerback -3.88993 -6.24889 3.24927
upperback -14.3498 -8.13559 8.78961
thorax -12.5971 -3.93517 8.50734
lowerneck -12.2991 9.99719 12.3577
upperneck 20.7928 12.3192 -4.64879
head 9.68916 6.2474 -2.03566
rclavicle 3.73715e-014 -8.74653e-014
rhumerus 37.2414 -26.9812 -69.6897
rradius 126.601
rwrist 6.40448
rhand -24.7613 -46.3035
rfingers 7.12502
rthumb 1.74212 -436.276
lclavicle 3.73715e-014 -8.74653e-014
lhumerus 107.915 -32.217 26.0304
lradius 86.3081
lwrist -23.9496
lhand -36.9762 -25.4484
lfingers 7.12502
lthumb -10.0517 4.29153
rfemur -13.7313 30.8197 13.9471
rtibia 9.04796
rfoot -8.70444 7.83889
rtoes -6.55188
lfemur 14.0168 -23.4664 -29.5549
ltibia -2.75807
lfoot -52.2833 57.8005
ltoes 33.2138
212
root 0.217579 17.545 9.29451 11.2907 -45.8975 -7.56404
lowerback -4.10102 -6.16152 3.42161
upperback -14.4382 -8.03484 8.82563
thorax -12.6089 -3.90896 8.43466
lowerneck -12.3332 10.2536 12.5935
upperneck 20.4295 12.646 -4.77252
head 9.62334 6.40328 -2.06543
rclavicle -7.71285e-014 1.17681e-013
rhumerus 38.1733 -27.9298 -69.3508
rradius 127.757
rwrist 7.299
rhand -25.2741 -45.8175
rfingers 7.12502
rthumb 1.24685 -435.794
lclavicle -7.71285e-014 1.17681e-013
lhumerus 108.43 -31.6069 25.7769
lradius 87.8418
lwrist -24.5814
lhand -37.2725 -26.8323
lfingers 7.12502
lthumb -10.3376 2.89365
rfemur -13.7235 30.8654 14.0758
rtibia 9.0071
rfoot -8.54595 8.54822
rtoes -5.84161
lfemur 14.1469 -23.0816 -29.6702
ltibia -2.67794
lfoot -53.264 57.8586
ltoes 33.4958
